<svg xmlns="http://www.w3.org/2000/svg" version="1.1" xmlns:xlink="http://www.w3.org/1999/xlink" width="512" height="512" x="0" y="0" viewBox="0 0 64 64" style="enable-background:new 0 0 512 512" xml:space="preserve"><g><path d="M57 47H7a3 3 0 0 0 0 6h50a3 3 0 0 0 0-6zM7 17h50a3 3 0 0 0 0-6H7a3 3 0 0 0 0 6zM7 35h37.94a3 3 0 0 0 0-6H7a3 3 0 0 0 0 6z" fill="#000000" opacity="1" data-original="#000000"></path><circle cx="55" cy="32" r="5" fill="#000000" opacity="1" data-original="#000000"></circle></g></svg>