<svg xmlns="http://www.w3.org/2000/svg" version="1.1" xmlns:xlink="http://www.w3.org/1999/xlink" width="512" height="512" x="0" y="0" viewBox="0 0 24 24" style="enable-background:new 0 0 512 512" xml:space="preserve"><g><path d="M22 11H8.41l1.3-1.29a1 1 0 0 0-1.42-1.42l-3 3a1 1 0 0 0 0 1.42l3 3a1 1 0 0 0 1.42 0 1 1 0 0 0 0-1.42L8.41 13H22a1 1 0 0 0 0-2z" fill="#000000" opacity="1" data-original="#000000"></path><path d="M13 16a1 1 0 0 0-1 1 3 3 0 0 1-3 3H6a3 3 0 0 1-3-3V7a3 3 0 0 1 3-3h3a3 3 0 0 1 3 3 1 1 0 0 0 2 0 5 5 0 0 0-5-5H6a5 5 0 0 0-5 5v10a5 5 0 0 0 5 5h3a5 5 0 0 0 5-5 1 1 0 0 0-1-1z" fill="#000000" opacity="1" data-original="#000000"></path></g></svg>